<svg width="122" height="25" viewBox="0 0 122 25" version="1.1" xmlns="http://www.w3.org/2000/svg" xmlns:xlink="http://www.w3.org/1999/xlink">
<title>Group 2</title>
<desc>Created using Figma</desc>
<g id="Canvas" transform="translate(-6629 -2367)">
<g id="Group 2">
<g id="GDG_Riga_logo ">
<g id="Group">
<g id="XMLID 243" opacity="0.5">
<g id="XMLID 245" opacity="0.5">
<use xlink:href="#path0_fill" transform="translate(6711.79 2370.76)" fill="#FFC6D5"/>
</g>
<g id="XMLID 248" opacity="0.5">
<use xlink:href="#path1_fill" transform="translate(6723.8 2370.59)" fill="#FFC6D5"/>
</g>
<g id="XMLID 251" opacity="0.5">
<use xlink:href="#path2_fill" transform="translate(6728.13 2375.35)" fill="#FFC6D5"/>
</g>
<g id="XMLID 254" opacity="0.5">
<use xlink:href="#path3_fill" transform="translate(6740.59 2375.37)" fill="#FFC6D5"/>
</g>
</g>
<g id="XMLID 319">
<g id="XMLID 322" opacity="0.5">
<use xlink:href="#path4_fill" transform="translate(6670.38 2369.43)" fill="#FFC6D5"/>
</g>
<g id="XMLID 321" opacity="0.5">
<use xlink:href="#path5_fill" transform="translate(6651 2369)" fill="#FFC6D5"/>
</g>
<g id="XMLID 320" opacity="0.5">
<use xlink:href="#path6_fill" transform="translate(6685.9 2369)" fill="#FFC6D5"/>
</g>
</g>
</g>
</g>
<g id="Group">
<g id="Vector">
<use xlink:href="#path7_fill" transform="translate(6633.37 2383.04)" fill="#FFC6D5"/>
</g>
<g id="Vector">
<use xlink:href="#path8_fill" transform="translate(6629 2379.34)" fill="#FFC6D5"/>
</g>
<g id="Vector">
<use xlink:href="#path9_fill" transform="translate(6629 2367)" fill="#FFC6D5"/>
</g>
<g id="Vector">
<use xlink:href="#path10_fill" transform="translate(6633.37 2367)" fill="#FFC6D5"/>
</g>
</g>
</g>
</g>
<defs>
<path id="path0_fill" d="M 2.00458 15.6704L 0 15.6704L 0 0L 5.31986 0C 6.67681 0 7.8333 0.448167 8.77391 1.3445C 9.72994 2.24084 10.208 3.35353 10.208 4.65167C 10.208 5.73345 9.8533 6.69161 9.14398 7.52612C 8.43467 8.36064 7.54032 8.90153 6.47635 9.13334L 6.43009 9.19516L 10.8248 15.5622L 10.8248 15.655L 8.45009 15.655L 4.24047 9.30334L 2.00458 9.30334L 2.00458 15.6704ZM 2.00458 1.93176L 2.00458 7.44885L 5.24276 7.44885C 6.06001 7.44885 6.7539 7.18613 7.32444 6.64524C 7.89498 6.1198 8.17253 5.45528 8.17253 4.66713C 8.17253 3.94078 7.91039 3.30716 7.3707 2.75082C 6.831 2.20993 6.16795 1.93176 5.36611 1.93176L 2.00458 1.93176Z"/>
<path id="path1_fill" d="M 2.83725 1.42177C 2.83725 1.80812 2.69847 2.14811 2.42092 2.42629C 2.14336 2.70446 1.80412 2.84354 1.41862 2.84354C 1.01771 2.84354 0.693891 2.70446 0.416333 2.42629C 0.138775 2.14811 3.76462e-06 1.80812 3.76462e-06 1.42177C 3.76462e-06 1.03542 0.138775 0.695433 0.416333 0.41726C 0.693891 0.139087 1.03313 -9.4324e-07 1.41862 -9.4324e-07C 1.80412 -9.4324e-07 2.14336 0.139087 2.42092 0.41726C 2.69847 0.695433 2.83725 1.03542 2.83725 1.42177ZM 2.43634 5.11529L 2.43634 15.8404L 0.431758 15.8404L 0.431758 5.11529L 2.43634 5.11529Z"/>
<path id="path2_fill" d="M 5.3507 16.1649C 4.74932 16.1649 4.1942 16.0877 3.66993 15.9331C 3.14565 15.7786 2.66764 15.5622 2.23588 15.2841C 1.80413 15.0059 1.43405 14.6813 1.14107 14.295C 0.832677 13.9086 0.601379 13.4914 0.44718 13.0278L 2.34382 12.2396C 2.5597 12.8732 2.94519 13.3678 3.48489 13.7541C 4.02458 14.1405 4.6568 14.3259 5.36611 14.3259C 6.46093 14.3259 7.30902 14.0014 7.92582 13.3368C 8.54261 12.6723 8.83559 11.776 8.83559 10.6169L 8.83559 9.58151L 8.74307 9.58151C 8.35757 10.1533 7.84872 10.6015 7.20108 10.926C 6.55345 11.2505 5.84413 11.4205 5.08856 11.4205C 3.68535 11.4205 2.4826 10.8797 1.4803 9.78241C 0.493432 8.65427 0 7.30977 0 5.718C 0 4.12623 0.493432 2.78173 1.4803 1.66904C 2.4826 0.556346 3.68535 1.88648e-06 5.08856 1.88648e-06C 5.84413 1.88648e-06 6.55345 0.169994 7.20108 0.494529C 7.84872 0.819064 8.35757 1.26723 8.74307 1.83903L 8.83559 1.83903L 8.83559 0.355443L 10.7631 0.355443L 10.7631 10.6169C 10.7631 12.3323 10.2696 13.6923 9.29818 14.6659C 8.28047 15.655 6.96978 16.1649 5.3507 16.1649ZM 5.41237 9.59696C 6.39924 9.59696 7.2165 9.24152 7.83329 8.53063C 8.48093 7.81975 8.82017 6.87705 8.82017 5.73345C 8.82017 4.6053 8.49635 3.67806 7.83329 2.95172C 7.18566 2.22538 6.38382 1.85449 5.41237 1.85449C 4.45634 1.85449 3.63909 2.22538 2.99146 2.95172C 2.34382 3.67806 2.00458 4.6053 2.00458 5.73345C 2.00458 6.87705 2.3284 7.80429 2.99146 8.51518C 3.63909 9.22607 4.45634 9.59696 5.41237 9.59696Z"/>
<path id="path3_fill" d="M 4.67222 -1.88648e-06C 6.15253 -1.88648e-06 7.32444 0.401805 8.18796 1.18996C 9.05147 1.97812 9.48322 3.07536 9.48322 4.46622L 9.48322 11.0806L 7.55574 11.0806L 7.55574 9.59696L 7.46322 9.59696C 6.63055 10.8178 5.52032 11.436 4.14795 11.436C 2.97604 11.436 1.98916 11.0806 1.18733 10.3851C 0.400917 9.68969 -1.88231e-06 8.80881 -1.88231e-06 7.75793C -1.88231e-06 6.64524 0.41634 5.76436 1.24901 5.11529C 2.08169 4.46622 3.20733 4.12623 4.59512 4.12623C 5.78245 4.12623 6.76933 4.34259 7.54032 4.7753L 7.54032 4.31168C 7.54032 3.61625 7.26276 3.01354 6.70764 2.53447C 6.15253 2.03994 5.5049 1.80812 4.76474 1.80812C 3.63909 1.80812 2.76016 2.2872 2.09711 3.2299L 0.323821 2.1172C 1.32611 0.695432 2.76015 -1.88648e-06 4.67222 -1.88648e-06ZM 2.08168 7.78884C 2.08168 8.31428 2.29756 8.74699 2.74473 9.10244C 3.19191 9.45788 3.71619 9.62787 4.30215 9.62787C 5.15024 9.62787 5.90582 9.31879 6.56887 8.68518C 7.23193 8.05156 7.55574 7.32522 7.55574 6.47525C 6.92352 5.98072 6.06001 5.73345 4.93436 5.73345C 4.1171 5.73345 3.43863 5.93436 2.89893 6.32071C 2.34382 6.70706 2.08168 7.20159 2.08168 7.78884Z"/>
<path id="path4_fill" d="M 0 -9.4324e-07L 5.21192 -9.4324e-07C 10.5164 -9.4324e-07 13.847 3.52352 13.847 8.48427C 13.847 13.4605 10.5164 16.9685 5.21192 16.9685L 0 16.9685L 0 -9.4324e-07ZM 5.30444 14.3877C 9.00521 14.3877 11.2873 12.3323 11.2873 8.46882C 11.2873 4.63622 9.00521 2.54992 5.30444 2.54992L 2.5597 2.54992L 2.5597 14.3723L 5.30444 14.3723L 5.30444 14.3877Z"/>
<path id="path5_fill" d="M 17.2394 8.14428L 9.11315 8.14428L 9.11315 10.6633L 14.8339 10.6633C 14.6489 11.946 14.2017 12.9505 13.5387 13.615C 12.6906 14.465 11.3644 15.4077 9.03605 15.4077C 5.44322 15.4077 2.65222 12.5178 2.65222 8.91698C 2.65222 5.31619 5.45863 2.42629 9.03605 2.42629C 10.9635 2.42629 12.3822 3.18353 13.4307 4.17259L 15.1423 2.45719C 13.6928 1.06633 11.7499 9.4324e-07 9.03605 9.4324e-07C 4.11711 9.4324e-07 4.70577e-07 4.0026 4.70577e-07 8.93244C 4.70577e-07 13.8623 4.13253 17.8649 9.03605 17.8649C 11.6883 17.8649 13.6929 16.9995 15.2503 15.3613C 16.8539 13.7541 17.3628 11.4824 17.3628 9.65878C 17.3782 9.07153 17.3319 8.577 17.2394 8.14428Z"/>
<path id="path6_fill" d="M 17.2394 8.14428L 9.11315 8.14428L 9.11315 10.6633L 14.8339 10.6633C 14.6489 11.946 14.2017 12.9505 13.5386 13.615C 12.6906 14.465 11.3644 15.4077 9.03605 15.4077C 5.44322 15.4077 2.65222 12.5178 2.65222 8.91698C 2.65222 5.31619 5.45864 2.42629 9.03605 2.42629C 10.9635 2.42629 12.3822 3.18353 13.4307 4.17259L 15.1423 2.45719C 13.6928 1.06633 11.7499 9.4324e-07 9.03605 9.4324e-07C 4.11711 9.4324e-07 9.41154e-07 4.0026 9.41154e-07 8.93244C 9.41154e-07 13.8623 4.13253 17.8649 9.03605 17.8649C 11.6883 17.8649 13.6928 16.9995 15.2503 15.3613C 16.8539 13.7541 17.3628 11.4824 17.3628 9.65878C 17.3628 9.07153 17.3319 8.577 17.2394 8.14428Z"/>
<path id="path7_fill" d="M 4.07681 2.93068e-06L 1.86249e-07 6.96235L 3.14915 6.96235L 5.66359 2.6889L 4.07681 2.93068e-06Z"/>
<path id="path8_fill" d="M 6.27389 7.32669e-07L 4.65622e-08 10.6596L 3.36886 10.6596L 7.95832 2.85697L 6.27389 7.32669e-07Z"/>
<path id="path9_fill" d="M 12.206 15.0291L 3.36886 -1.46534e-06L 4.65622e-08 -1.46534e-06L 10.5216 17.886L 12.206 15.0291Z"/>
<path id="path10_fill" d="M 9.37421 12.4122C 9.71598 11.86 9.71598 11.1638 9.37421 10.5876L 3.14915 -1.46534e-06L 1.86249e-07 -1.46534e-06L 8.34891 14.1888L 9.37421 12.4122Z"/>
</defs>
</svg>
