<svg width="186" height="24" viewBox="0 0 186 24" version="1.1" xmlns="http://www.w3.org/2000/svg" xmlns:xlink="http://www.w3.org/1999/xlink">
<title>GDG_Daugavpils_logo </title>
<desc>Created using Figma</desc>
<g id="Canvas" transform="translate(-6629 -2407)">
<g id="GDG_Daugavpils_logo ">
<g id="Group">
<g id="XMLID 292" opacity="0.5">
<g id="XMLID 316" opacity="0.5">
<use xlink:href="#path0_fill" transform="translate(6712.5 2410.26)" fill="#FFC6D5"/>
</g>
<g id="XMLID 313" opacity="0.5">
<use xlink:href="#path1_fill" transform="translate(6726.74 2414.87)" fill="#FFC6D5"/>
</g>
<g id="XMLID 311" opacity="0.5">
<use xlink:href="#path2_fill" transform="translate(6738.52 2415.19)" fill="#FFC6D5"/>
</g>
<g id="XMLID 308" opacity="0.5">
<use xlink:href="#path3_fill" transform="translate(6749.79 2414.89)" fill="#FFC6D5"/>
</g>
<g id="XMLID 305" opacity="0.5">
<use xlink:href="#path4_fill" transform="translate(6762.42 2414.87)" fill="#FFC6D5"/>
</g>
<g id="XMLID 303" opacity="0.5">
<use xlink:href="#path5_fill" transform="translate(6772.88 2415.21)" fill="#FFC6D5"/>
</g>
<g id="XMLID 300" opacity="0.5">
<use xlink:href="#path6_fill" transform="translate(6784.94 2414.87)" fill="#FFC6D5"/>
</g>
<g id="XMLID 297" opacity="0.5">
<use xlink:href="#path7_fill" transform="translate(6797.29 2410.1)" fill="#FFC6D5"/>
</g>
<g id="XMLID 295" opacity="0.5">
<use xlink:href="#path8_fill" transform="translate(6802.37 2410.26)" fill="#FFC6D5"/>
</g>
<g id="XMLID 293" opacity="0.5">
<use xlink:href="#path9_fill" transform="translate(6806.01 2414.85)" fill="#FFC6D5"/>
</g>
</g>
<g id="XMLID 244">
<g id="XMLID 259" opacity="0.5">
<use xlink:href="#path10_fill" transform="translate(6670.7 2408.94)" fill="#FFC6D5"/>
</g>
<g id="XMLID 258" opacity="0.5">
<use xlink:href="#path11_fill" transform="translate(6651.15 2408.48)" fill="#FFC6D5"/>
</g>
<g id="XMLID 257" opacity="0.5">
<use xlink:href="#path12_fill" transform="translate(6686.37 2408.48)" fill="#FFC6D5"/>
</g>
</g>
</g>
<g id="Group">
<g id="Vector">
<use xlink:href="#path13_fill" transform="translate(6633.37 2423.04)" fill="#FFC6D5"/>
</g>
<g id="Vector">
<use xlink:href="#path14_fill" transform="translate(6629 2419.34)" fill="#FFC6D5"/>
</g>
<g id="Vector">
<use xlink:href="#path15_fill" transform="translate(6629 2407)" fill="#FFC6D5"/>
</g>
<g id="Vector">
<use xlink:href="#path16_fill" transform="translate(6633.37 2407)" fill="#FFC6D5"/>
</g>
</g>
</g>
</g>
<defs>
<path id="path0_fill" d="M 1.40397e-06 15.6502L 1.40397e-06 -2.78487e-06L 4.83057 -2.78487e-06C 7.24585 -2.78487e-06 9.17807 0.730034 10.6272 2.1673C 12.0994 3.60456 12.8125 5.4981 12.8125 7.82509C 12.8125 10.1749 12.0764 12.0684 10.6272 13.5057C 9.15507 14.943 7.22285 15.6502 4.83057 15.6502L 1.40397e-06 15.6502ZM 2.02424 1.93916L 2.02424 13.7338L 4.83057 13.7338C 6.67078 13.7338 8.11995 13.2091 9.17808 12.1825C 10.2362 11.1331 10.7653 9.69581 10.7653 7.8479C 10.7653 6.02281 10.2362 4.56274 9.17808 3.51331C 8.11995 2.46388 6.67078 1.93916 4.83057 1.93916L 2.02424 1.93916Z"/>
<path id="path1_fill" d="M 4.71555 0C 6.21073 0 7.40687 0.387835 8.25797 1.18631C 9.13207 1.98479 9.56913 3.07984 9.56913 4.44867L 9.56913 11.0418L 7.6369 11.0418L 7.6369 9.55892L 7.54488 9.55892C 6.71679 10.7909 5.58966 11.384 4.18649 11.384C 2.99035 11.384 2.00124 11.0418 1.19614 10.3346C 0.391049 9.62736 0 8.76044 0 7.71102C 0 6.59315 0.414049 5.72623 1.26515 5.06464C 2.11625 4.40304 3.24338 4.08364 4.64655 4.08364C 5.84269 4.08364 6.8318 4.31178 7.6139 4.74524L 7.6139 4.28897C 7.6139 3.58174 7.33786 2.98859 6.7858 2.5095C 6.23373 2.03042 5.56665 1.77946 4.83057 1.77946C 3.70343 1.77946 2.80633 2.25855 2.13925 3.19391L 0.345041 2.07605C 1.35716 0.684411 2.80633 0 4.71555 0ZM 2.09325 7.77946C 2.09325 8.30418 2.32327 8.73763 2.76032 9.07984C 3.19738 9.42204 3.72643 9.60456 4.3245 9.60456C 5.1756 9.60456 5.9347 9.28516 6.60178 8.66919C 7.26886 8.05322 7.6139 7.30037 7.6139 6.45626C 6.99282 5.95436 6.09572 5.70342 4.96859 5.70342C 4.14049 5.70342 3.45041 5.90874 2.89834 6.29657C 2.36928 6.70722 2.09325 7.18631 2.09325 7.77946Z"/>
<path id="path2_fill" d="M 9.56912 10.7224L 7.6369 10.7224L 7.6369 9.23953L 7.54489 9.23953C 7.24585 9.76425 6.76279 10.1977 6.11872 10.5399C 5.47464 10.8821 4.80757 11.0646 4.11748 11.0646C 2.80633 11.0646 1.77121 10.6996 1.05812 9.94676C 0.345038 9.19391 2.80795e-06 8.12167 2.80795e-06 6.75284L 2.80795e-06 0.0228137L 2.02424 0.0228137L 2.02424 6.61596C 2.07024 8.37261 2.96734 9.23953 4.69255 9.23953C 5.49764 9.23953 6.18773 8.92014 6.71679 8.25855C 7.26886 7.61977 7.52189 6.8441 7.52189 5.93155L 7.52189 -1.39244e-06L 9.54612 -1.39244e-06L 9.54612 10.7224L 9.56912 10.7224Z"/>
<path id="path3_fill" d="M 5.42863 16.1065C 4.83056 16.1065 4.25551 16.038 3.72644 15.8783C 3.19738 15.7186 2.71431 15.5133 2.27726 15.2395C 1.84021 14.9658 1.47217 14.6236 1.17313 14.2585C 0.8741 13.8707 0.621076 13.4601 0.460057 12.981L 2.36928 12.2053C 2.59931 12.8213 2.96735 13.3232 3.51941 13.711C 4.07148 14.0989 4.69255 14.2814 5.40564 14.2814C 6.50977 14.2814 7.36087 13.962 7.98194 13.3004C 8.60301 12.6388 8.90205 11.749 8.90205 10.5855L 8.90205 9.55893L 8.81003 9.55893C 8.41899 10.1293 7.91293 10.5855 7.24585 10.9049C 6.60178 11.2243 5.88869 11.4068 5.1296 11.4068C 3.72644 11.4068 2.5073 10.8593 1.49518 9.76425C 0.506062 8.64638 2.80795e-06 7.27756 2.80795e-06 5.70342C 2.80795e-06 4.12928 0.506062 2.76045 1.49518 1.6654C 2.5073 0.547527 3.72644 1.39244e-06 5.1296 1.39244e-06C 5.88869 1.39244e-06 6.60178 0.159693 7.24585 0.501898C 7.88993 0.821289 8.41899 1.27757 8.81003 1.84791L 8.90205 1.84791L 8.90205 0.319391L 10.8343 0.319391L 10.8343 10.5627C 10.8343 12.2738 10.3512 13.6198 9.3621 14.6007C 8.39599 15.6046 7.08483 16.1065 5.42863 16.1065ZM 5.49764 9.53611C 6.48676 9.53611 7.31486 9.1711 7.93593 8.46387C 8.60301 7.75665 8.92505 6.82129 8.92505 5.65779C 8.92505 4.53992 8.60301 3.60456 7.93593 2.87452C 7.29186 2.14449 6.46375 1.77946 5.49764 1.77946C 4.53153 1.77946 3.70343 2.14449 3.05936 2.87452C 2.39228 3.60456 2.07025 4.5171 2.07025 5.65779C 2.07025 6.79847 2.39228 7.71102 3.05936 8.44106C 3.70343 9.1711 4.53153 9.53611 5.49764 9.53611Z"/>
<path id="path4_fill" d="M 4.71555 0C 6.21072 0 7.40687 0.387835 8.25797 1.18631C 9.13207 1.98479 9.56913 3.07984 9.56913 4.44867L 9.56913 11.0418L 7.63689 11.0418L 7.63689 9.55892L 7.54489 9.55892C 6.71679 10.7909 5.58965 11.384 4.18649 11.384C 2.99035 11.384 2.00123 11.0418 1.19614 10.3346C 0.391043 9.62736 -5.61589e-06 8.76044 -5.61589e-06 7.71102C -5.61589e-06 6.59315 0.414043 5.72623 1.26514 5.06464C 2.11624 4.40304 3.24338 4.08364 4.64654 4.08364C 5.84268 4.08364 6.83181 4.31178 7.6139 4.74524L 7.6139 4.28897C 7.6139 3.58174 7.33786 2.98859 6.78579 2.5095C 6.23373 2.03042 5.56665 1.77946 4.83056 1.77946C 3.70343 1.77946 2.80633 2.25855 2.13926 3.19391L 0.345035 2.07605C 1.33415 0.684411 2.78332 0 4.71555 0ZM 2.09325 7.77946C 2.09325 8.30418 2.32327 8.73763 2.76032 9.07984C 3.19737 9.42204 3.72644 9.60456 4.32451 9.60456C 5.17561 9.60456 5.93469 9.28516 6.60177 8.66919C 7.26885 8.05322 7.6139 7.30037 7.6139 6.45626C 6.99282 5.95436 6.09572 5.70342 4.96859 5.70342C 4.14049 5.70342 3.45041 5.90874 2.89834 6.29657C 2.36928 6.70722 2.09325 7.18631 2.09325 7.77946Z"/>
<path id="path5_fill" d="M 6.39476 10.6996L 4.37051 10.6996L -5.61589e-06 0L 2.20826 0L 5.38263 8.30417L 5.42864 8.30417L 8.64902 0L 10.8113 0L 6.39476 10.6996Z"/>
<path id="path6_fill" d="M 5.70467 11.4068C 4.92257 11.4068 4.1865 11.2471 3.54242 10.9049C 2.89835 10.5627 2.39228 10.1293 2.02423 9.58174L 1.93223 9.58174L 2.02423 11.0646L 2.02423 15.7871L 0 15.7871L 0 0.342205L 1.93223 0.342205L 1.93223 1.82509L 2.02423 1.82509C 2.36928 1.27757 2.87534 0.821295 3.54242 0.501903C 4.1865 0.159698 4.92257 0 5.70467 0C 7.13083 0 8.32698 0.547525 9.31609 1.66539C 10.3282 2.78326 10.8343 4.12927 10.8343 5.70342C 10.8343 7.30037 10.3282 8.64638 9.31609 9.74144C 8.32698 10.8365 7.13083 11.4068 5.70467 11.4068ZM 5.35963 9.55892C 6.32574 9.55892 7.15385 9.19391 7.79792 8.46387C 8.465 7.75665 8.78703 6.82129 8.78703 5.6806C 8.78703 4.56273 8.465 3.62738 7.79792 2.89734C 7.13084 2.1673 6.32574 1.80228 5.35963 1.80228C 4.37051 1.80228 3.54241 2.1673 2.89833 2.89734C 2.25426 3.62738 1.93223 4.53992 1.93223 5.6806C 1.93223 6.82129 2.25426 7.75665 2.89833 8.48669C 3.56541 9.21672 4.39351 9.55892 5.35963 9.55892Z"/>
<path id="path7_fill" d="M 2.85233 1.41444C 2.85233 1.80228 2.71432 2.14449 2.43828 2.41825C 2.16225 2.69202 1.81722 2.82889 1.42617 2.82889C 1.03513 2.82889 0.690081 2.69202 0.414049 2.41825C 0.138016 2.14449 2.80795e-06 1.80228 2.80795e-06 1.41444C 2.80795e-06 1.02661 0.138016 0.684409 0.414049 0.410645C 0.690081 0.136881 1.03513 1.39244e-06 1.42617 1.39244e-06C 1.81722 1.39244e-06 2.16225 0.136881 2.43828 0.410645C 2.71432 0.684409 2.85233 1.02661 2.85233 1.41444ZM 2.41529 5.11026L 2.41529 15.8099L 0.391052 15.8099L 0.391052 5.11026L 2.41529 5.11026Z"/>
<path id="path8_fill" d="M 2.02423 -2.78487e-06L 2.02423 15.6502L -2.80795e-06 15.6502L -2.80795e-06 -2.78487e-06L 2.02423 -2.78487e-06Z"/>
<path id="path9_fill" d="M 8.99406 8.09885C 8.99406 9.03421 8.58 9.80988 7.75191 10.4487C 6.92381 11.0874 5.88869 11.4068 4.64654 11.4068C 3.56542 11.4068 2.5993 11.1331 1.77121 10.5627C 0.943108 9.99239 0.368038 9.26235 -5.61589e-06 8.3498L 1.81721 7.57414C 2.09325 8.21292 2.46129 8.71482 2.96735 9.07984C 3.47341 9.44486 4.02548 9.60455 4.62355 9.60455C 5.26762 9.60455 5.81969 9.46767 6.23373 9.19391C 6.67079 8.92015 6.87781 8.60075 6.87781 8.21292C 6.87781 7.52851 6.34874 7.02661 5.29062 6.70722L 3.4504 6.25094C 1.35715 5.72623 0.299041 4.72243 0.299041 3.23954C 0.299041 2.25855 0.690075 1.48289 1.49517 0.88973C 2.30026 0.296575 3.31239 -1.39244e-06 4.57754 -1.39244e-06C 5.54365 -1.39244e-06 6.39475 0.228135 7.17684 0.684409C 7.95893 1.14068 8.48799 1.73384 8.78703 2.5095L 6.96982 3.26236C 6.7628 2.80608 6.44076 2.46388 5.9577 2.21293C 5.49765 1.96198 4.96859 1.82509 4.39352 1.82509C 3.86446 1.82509 3.3814 1.96198 2.96735 2.21293C 2.5533 2.46388 2.34627 2.80608 2.34627 3.1711C 2.34627 3.78707 2.92135 4.22053 4.09449 4.47148L 5.72767 4.88212C 7.93593 5.40684 8.99406 6.47908 8.99406 8.09885Z"/>
<path id="path10_fill" d="M -1.40397e-06 0L 5.26762 0C 10.6272 0 13.9856 3.53612 13.9856 8.48669C 13.9856 13.4601 10.6272 16.9734 5.26762 16.9734L -1.40397e-06 16.9734L -1.40397e-06 0ZM 5.35963 14.3726C 9.08607 14.3726 11.4093 12.3194 11.4093 8.46387C 11.4093 4.63118 9.10907 2.55513 5.35963 2.55513L 2.5993 2.55513L 2.5993 14.3726L 5.35963 14.3726Z"/>
<path id="path11_fill" d="M 17.39 8.16729L 9.20108 8.16729L 9.20108 10.6768L 14.9748 10.6768C 14.7907 11.9544 14.3307 12.9582 13.6636 13.6198C 12.8125 14.4639 11.4783 15.3992 9.13207 15.3992C 5.52065 15.3992 2.69132 12.5019 2.69132 8.92015C 2.69132 5.3384 5.52065 2.44107 9.13207 2.44107C 11.0873 2.44107 12.5135 3.19391 13.5716 4.1749L 15.2968 2.46387C 13.8246 1.07224 11.8694 -1.29681e-14 9.13207 -1.29681e-14C 4.16349 -1.29681e-14 3.50993e-07 3.99239 3.50993e-07 8.92015C 3.50993e-07 13.8479 4.16349 17.8403 9.13207 17.8403C 11.8004 17.8403 13.8246 16.9734 15.4118 15.3308C 17.045 13.711 17.5511 11.4525 17.5511 9.62737C 17.5281 9.07984 17.4821 8.60075 17.39 8.16729Z"/>
<path id="path12_fill" d="M 17.39 8.16729L 9.20108 8.16729L 9.20108 10.6768L 14.9748 10.6768C 14.7907 11.9544 14.3307 12.9582 13.6636 13.6198C 12.8125 14.4639 11.4784 15.3992 9.13208 15.3992C 5.52065 15.3992 2.69132 12.5019 2.69132 8.92015C 2.69132 5.3384 5.52065 2.44107 9.13208 2.44107C 11.0873 2.44107 12.5135 3.19391 13.5716 4.1749L 15.2968 2.46387C 13.8246 1.07224 11.8694 -1.29681e-14 9.13208 -1.29681e-14C 4.16349 -1.29681e-14 -1.30755e-14 3.99239 -1.30755e-14 8.92015C -1.30755e-14 13.8479 4.16349 17.8403 9.13208 17.8403C 11.8004 17.8403 13.8246 16.9734 15.4118 15.3308C 17.045 13.711 17.5511 11.4525 17.5511 9.62737C 17.5281 9.07984 17.4821 8.60075 17.39 8.16729Z"/>
<path id="path13_fill" d="M 4.07681 2.93068e-06L 1.86249e-07 6.96235L 3.14915 6.96235L 5.66359 2.6889L 4.07681 2.93068e-06Z"/>
<path id="path14_fill" d="M 6.27389 7.32669e-07L 4.65622e-08 10.6596L 3.36886 10.6596L 7.95832 2.85697L 6.27389 7.32669e-07Z"/>
<path id="path15_fill" d="M 12.206 15.0291L 3.36886 -1.46534e-06L 4.65622e-08 -1.46534e-06L 10.5216 17.886L 12.206 15.0291Z"/>
<path id="path16_fill" d="M 9.37421 12.4122C 9.71598 11.86 9.71598 11.1638 9.37421 10.5876L 3.14915 -1.46534e-06L 1.86249e-07 -1.46534e-06L 8.34891 14.1888L 9.37421 12.4122Z"/>
</defs>
</svg>
