<svg width="94" height="31" viewBox="0 0 94 31" version="1.1" xmlns="http://www.w3.org/2000/svg" xmlns:xlink="http://www.w3.org/1999/xlink">
<title>Google_2015_logo</title>
<desc>Created using Figma</desc>
<g id="Canvas" transform="translate(-6880 -2363)">
<g id="Google_2015_logo">
<g id="Vector">
<use xlink:href="#path0_fill" transform="translate(6904.71 2371.57)" fill="#FFC6D5"/>
</g>
<g id="Vector">
<use xlink:href="#path1_fill" transform="translate(6921.45 2371.57)" fill="#FFC6D5"/>
</g>
<g id="Vector">
<use xlink:href="#path2_fill" transform="translate(6938.17 2371.57)" fill="#FFC6D5"/>
</g>
<g id="Vector">
<use xlink:href="#path3_fill" transform="translate(6955 2363.88)" fill="#FFC6D5"/>
</g>
<g id="Vector">
<use xlink:href="#path4_fill" transform="translate(6959.74 2371.56)" fill="#FFC6D5"/>
</g>
<g id="Vector">
<use xlink:href="#path5_fill" transform="translate(6880 2363)" fill="#FFC6D5"/>
</g>
</g>
</g>
<defs>
<path id="path0_fill" d="M 15.5133 7.74651C 15.5133 12.2065 12.0306 15.493 7.75664 15.493C 3.48264 15.493 0 12.2065 0 7.74651C 0 3.25507 3.48264 0 7.75664 0C 12.0306 0 15.5133 3.25507 15.5133 7.74651ZM 12.1178 7.74651C 12.1178 4.95944 10.0993 3.0525 7.75664 3.0525C 5.41396 3.0525 3.39549 4.95944 3.39549 7.74651C 3.39549 10.5056 5.41396 12.4405 7.75664 12.4405C 10.0993 12.4405 12.1178 10.5021 12.1178 7.74651Z"/>
<path id="path1_fill" d="M 15.5133 7.74651C 15.5133 12.2065 12.0306 15.493 7.75664 15.493C 3.48264 15.493 0 12.2065 0 7.74651C 0 3.25856 3.48264 0 7.75664 0C 12.0306 0 15.5133 3.25507 15.5133 7.74651ZM 12.1178 7.74651C 12.1178 4.95944 10.0993 3.0525 7.75664 3.0525C 5.41396 3.0525 3.39549 4.95944 3.39549 7.74651C 3.39549 10.5056 5.41396 12.4405 7.75664 12.4405C 10.0993 12.4405 12.1178 10.5021 12.1178 7.74651Z"/>
<path id="path2_fill" d="M 14.823 0.468004L 14.823 14.3754C 14.823 20.0962 11.4554 22.4327 7.47426 22.4327C 3.72667 22.4327 1.47114 19.9216 0.620529 17.868L 3.57677 16.6351C 4.10318 17.8959 5.39304 19.3837 7.47078 19.3837C 10.0191 19.3837 11.5984 17.8086 11.5984 14.8434L 11.5984 13.7293L 11.4798 13.7293C 10.7199 14.6688 9.25567 15.4895 7.40802 15.4895C 3.54191 15.4895 -1.48944e-06 12.1157 -1.48944e-06 7.77445C -1.48944e-06 3.40176 3.54191 -1.24081e-15 7.40802 -1.24081e-15C 9.25219 -1.24081e-15 10.7164 0.820752 11.4798 1.73231L 11.5984 1.73231L 11.5984 0.471496L 14.823 0.471496L 14.823 0.468004ZM 11.8389 7.77445C 11.8389 5.04675 10.0226 3.0525 7.71132 3.0525C 5.36864 3.0525 3.40595 5.04675 3.40595 7.77445C 3.40595 10.4742 5.36864 12.4405 7.71132 12.4405C 10.0226 12.4405 11.8389 10.4742 11.8389 7.77445Z"/>
<path id="path3_fill" d="M 3.31182 0L 3.31182 22.7017L 0 22.7017L 0 0L 3.31182 0Z"/>
<path id="path4_fill" d="M 11.4798 10.2996L 14.1153 12.0598C 13.2647 13.3206 11.2149 15.493 7.67297 15.493C 3.28045 15.493 -1.27666e-06 12.0913 -1.27666e-06 7.74651C -1.27666e-06 3.13981 3.30834 -7.99384e-08 7.29298 -7.99384e-08C 11.3055 -7.99384e-08 13.2682 3.19919 13.9097 4.92801L 14.2618 5.80813L 3.92538 10.097C 4.71674 11.6512 5.94734 12.444 7.67297 12.444C 9.40209 12.444 10.6013 11.5918 11.4798 10.2996ZM 3.3676 7.51251L 10.2771 4.63813C 9.89713 3.67069 8.75367 2.99662 7.40802 2.99662C 5.68239 2.99662 3.28045 4.52287 3.3676 7.51251Z"/>
<path id="path5_fill" d="M 12.1771 14.2986L 12.1771 11.0121L 23.2316 11.0121C 23.3396 11.5848 23.3954 12.2624 23.3954 12.9958C 23.3954 15.4616 22.7226 18.5106 20.5542 20.683C 18.4451 22.8833 15.7503 24.0568 12.1805 24.0568C 5.56386 24.0568 4.98695e-09 18.6573 4.98695e-09 12.0284C 4.98695e-09 5.3995 5.56386 -4.16346e-10 12.1805 -4.16346e-10C 15.841 -4.16346e-10 18.4486 1.43894 20.4078 3.31444L 18.093 5.63351C 16.6881 4.31332 14.7847 3.2865 12.1771 3.2865C 7.34528 3.2865 3.56631 7.1877 3.56631 12.0284C 3.56631 16.8691 7.34528 20.7703 12.1771 20.7703C 15.3111 20.7703 17.096 19.5095 18.2394 18.3639C 19.1667 17.4349 19.7768 16.1077 20.0174 14.2951L 12.1771 14.2986Z"/>
</defs>
</svg>
