<svg width="488" height="188" viewBox="0 0 488 188" version="1.1" xmlns="http://www.w3.org/2000/svg" xmlns:xlink="http://www.w3.org/1999/xlink">
<title>DevFest Baltics 2018</title>
<desc>Created using Figma</desc>
<g id="Canvas" transform="matrix(2 0 0 2 -12944 972)">
<g id="DevFest Baltics 2018">
<use xlink:href="#path0_fill" transform="translate(6469.41 -497)" fill="#FFFFFF"/>
</g>
</g>
<defs>
<path id="path0_fill" d="M 3.456 46L 3.456 11.632L 13.968 11.632C 19.216 11.632 23.424 13.216 26.592 16.384C 29.792 19.552 31.392 23.696 31.392 28.816C 31.392 33.968 29.792 38.128 26.592 41.296C 23.424 44.432 19.216 46 13.968 46L 3.456 46ZM 7.872 15.856L 7.872 41.776L 13.968 41.776C 17.968 41.776 21.12 40.64 23.424 38.368C 25.728 36.064 26.88 32.88 26.88 28.816C 26.88 24.784 25.728 21.616 23.424 19.312C 21.12 17.008 17.968 15.856 13.968 15.856L 7.872 15.856ZM 45.7324 46.768C 42.2764 46.768 39.4284 45.584 37.1884 43.216C 34.9484 40.848 33.8284 37.856 33.8284 34.24C 33.8284 30.656 34.9164 27.68 37.0924 25.312C 39.2684 22.912 42.0524 21.712 45.4444 21.712C 48.9324 21.712 51.7004 22.848 53.7484 25.12C 55.8284 27.36 56.8684 30.512 56.8684 34.576L 56.8204 35.056L 38.3404 35.056C 38.4044 37.36 39.1724 39.216 40.6444 40.624C 42.1164 42.032 43.8764 42.736 45.9244 42.736C 48.7404 42.736 50.9484 41.328 52.5484 38.512L 56.4844 40.432C 55.4284 42.416 53.9564 43.968 52.0684 45.088C 50.2124 46.208 48.1004 46.768 45.7324 46.768ZM 38.6764 31.408L 52.1644 31.408C 52.0364 29.776 51.3644 28.432 50.1484 27.376C 48.9644 26.288 47.3644 25.744 45.3484 25.744C 43.6844 25.744 42.2444 26.256 41.0284 27.28C 39.8444 28.304 39.0604 29.68 38.6764 31.408ZM 71.862 46L 67.446 46L 57.942 22.48L 62.742 22.48L 69.654 40.72L 69.75 40.72L 76.758 22.48L 81.462 22.48L 71.862 46ZM 89.5283 31.264L 89.5283 46L 85.1122 46L 85.1122 11.632L 105.176 11.632L 105.176 15.856L 89.5283 15.856L 89.5283 27.136L 103.64 27.136L 103.64 31.264L 89.5283 31.264ZM 118.529 46.768C 115.073 46.768 112.225 45.584 109.985 43.216C 107.745 40.848 106.625 37.856 106.625 34.24C 106.625 30.656 107.713 27.68 109.889 25.312C 112.065 22.912 114.849 21.712 118.241 21.712C 121.729 21.712 124.497 22.848 126.545 25.12C 128.625 27.36 129.665 30.512 129.665 34.576L 129.617 35.056L 111.137 35.056C 111.201 37.36 111.969 39.216 113.441 40.624C 114.913 42.032 116.673 42.736 118.721 42.736C 121.537 42.736 123.745 41.328 125.345 38.512L 129.281 40.432C 128.225 42.416 126.753 43.968 124.865 45.088C 123.009 46.208 120.897 46.768 118.529 46.768ZM 111.473 31.408L 124.961 31.408C 124.833 29.776 124.161 28.432 122.945 27.376C 121.761 26.288 120.161 25.744 118.145 25.744C 116.481 25.744 115.041 26.256 113.825 27.28C 112.641 28.304 111.857 29.68 111.473 31.408ZM 151.938 39.472C 151.938 41.52 151.042 43.248 149.25 44.656C 147.458 46.064 145.202 46.768 142.482 46.768C 140.114 46.768 138.034 46.16 136.242 44.944C 134.45 43.696 133.17 42.064 132.402 40.048L 136.338 38.368C 136.914 39.776 137.746 40.88 138.834 41.68C 139.954 42.448 141.17 42.832 142.482 42.832C 143.89 42.832 145.058 42.528 145.986 41.92C 146.946 41.312 147.426 40.592 147.426 39.76C 147.426 38.256 146.274 37.152 143.97 36.448L 139.938 35.44C 135.362 34.288 133.074 32.08 133.074 28.816C 133.074 26.672 133.938 24.96 135.666 23.68C 137.426 22.368 139.666 21.712 142.386 21.712C 144.466 21.712 146.338 22.208 148.002 23.2C 149.698 24.192 150.882 25.52 151.554 27.184L 147.618 28.816C 147.17 27.824 146.434 27.056 145.41 26.512C 144.418 25.936 143.298 25.648 142.05 25.648C 140.898 25.648 139.858 25.936 138.93 26.512C 138.034 27.088 137.586 27.792 137.586 28.624C 137.586 29.968 138.85 30.928 141.378 31.504L 144.93 32.416C 149.602 33.568 151.938 35.92 151.938 39.472ZM 164.859 46.384C 162.939 46.384 161.339 45.792 160.059 44.608C 158.811 43.424 158.171 41.776 158.139 39.664L 158.139 26.512L 154.011 26.512L 154.011 22.48L 158.139 22.48L 158.139 15.28L 162.555 15.28L 162.555 22.48L 168.315 22.48L 168.315 26.512L 162.555 26.512L 162.555 38.224C 162.555 39.792 162.859 40.864 163.467 41.44C 164.075 41.984 164.763 42.256 165.531 42.256C 165.883 42.256 166.219 42.224 166.539 42.16C 166.891 42.064 167.211 41.952 167.499 41.824L 168.891 45.76C 167.739 46.176 166.395 46.384 164.859 46.384ZM 3.456 104L 3.456 69.632L 15.888 69.632C 18.608 69.632 20.944 70.528 22.896 72.32C 24.848 74.08 25.824 76.304 25.824 78.992C 25.824 82.384 24.272 84.768 21.168 86.144L 21.168 86.336C 22.928 86.912 24.336 87.92 25.392 89.36C 26.448 90.768 26.976 92.384 26.976 94.208C 26.976 97.024 25.952 99.36 23.904 101.216C 21.92 103.072 19.472 104 16.56 104L 3.456 104ZM 7.872 73.856L 7.872 84.368L 15.888 84.368C 17.456 84.368 18.768 83.84 19.824 82.784C 20.88 81.696 21.408 80.464 21.408 79.088C 21.408 77.744 20.896 76.528 19.872 75.44C 18.848 74.384 17.584 73.856 16.08 73.856L 7.872 73.856ZM 7.872 88.496L 7.872 99.776L 16.752 99.776C 18.352 99.776 19.712 99.216 20.832 98.096C 21.92 96.976 22.464 95.648 22.464 94.112C 22.464 92.608 21.904 91.296 20.784 90.176C 19.664 89.056 18.256 88.496 16.56 88.496L 7.872 88.496ZM 34.404 96.8C 34.404 97.952 34.884 98.912 35.844 99.68C 36.836 100.448 37.988 100.832 39.3 100.832C 41.156 100.832 42.804 100.144 44.244 98.768C 45.716 97.392 46.452 95.776 46.452 93.92C 45.076 92.832 43.156 92.288 40.692 92.288C 38.9 92.288 37.396 92.72 36.18 93.584C 34.996 94.448 34.404 95.52 34.404 96.8ZM 40.116 79.712C 43.38 79.712 45.956 80.592 47.844 82.352C 49.732 84.08 50.676 86.464 50.676 89.504L 50.676 104L 46.452 104L 46.452 100.736L 46.26 100.736C 44.436 103.424 42.004 104.768 38.964 104.768C 36.372 104.768 34.196 104 32.436 102.464C 30.708 100.928 29.844 99.008 29.844 96.704C 29.844 94.272 30.756 92.336 32.58 90.896C 34.436 89.456 36.9 88.736 39.972 88.736C 42.596 88.736 44.756 89.216 46.452 90.176L 46.452 89.168C 46.452 87.632 45.844 86.336 44.628 85.28C 43.412 84.192 41.988 83.648 40.356 83.648C 37.892 83.648 35.94 84.688 34.5 86.768L 30.612 84.32C 32.756 81.248 35.924 79.712 40.116 79.712ZM 60.0728 69.632L 60.0728 104L 55.6568 104L 55.6568 69.632L 60.0728 69.632ZM 75 104.384C 73.08 104.384 71.48 103.792 70.2 102.608C 68.952 101.424 68.312 99.776 68.28 97.664L 68.28 84.512L 64.152 84.512L 64.152 80.48L 68.28 80.48L 68.28 73.28L 72.696 73.28L 72.696 80.48L 78.456 80.48L 78.456 84.512L 72.696 84.512L 72.696 96.224C 72.696 97.792 73 98.864 73.608 99.44C 74.216 99.984 74.904 100.256 75.672 100.256C 76.024 100.256 76.36 100.224 76.68 100.16C 77.032 100.064 77.352 99.952 77.64 99.824L 79.032 103.76C 77.88 104.176 76.536 104.384 75 104.384ZM 88.6031 72.368C 88.6031 73.232 88.2991 73.968 87.6911 74.576C 87.0831 75.184 86.3471 75.488 85.4831 75.488C 84.6191 75.488 83.8831 75.184 83.2751 74.576C 82.6671 73.968 82.3631 73.232 82.3631 72.368C 82.3631 71.504 82.6671 70.768 83.2751 70.16C 83.8831 69.552 84.6191 69.248 85.4831 69.248C 86.3471 69.248 87.0831 69.552 87.6911 70.16C 88.2991 70.768 88.6031 71.504 88.6031 72.368ZM 87.6911 80.48L 87.6911 104L 83.2751 104L 83.2751 80.48L 87.6911 80.48ZM 103.956 104.768C 100.468 104.768 97.5716 103.584 95.2676 101.216C 92.9956 98.784 91.8596 95.792 91.8596 92.24C 91.8596 88.624 92.9956 85.632 95.2676 83.264C 97.5716 80.896 100.468 79.712 103.956 79.712C 106.356 79.712 108.452 80.32 110.244 81.536C 112.036 82.72 113.38 84.368 114.276 86.48L 110.244 88.16C 108.996 85.216 106.804 83.744 103.668 83.744C 101.652 83.744 99.9076 84.56 98.4356 86.192C 96.9956 87.824 96.2756 89.84 96.2756 92.24C 96.2756 94.64 96.9956 96.656 98.4356 98.288C 99.9076 99.92 101.652 100.736 103.668 100.736C 106.9 100.736 109.172 99.264 110.484 96.32L 114.42 98C 113.556 100.112 112.196 101.776 110.34 102.992C 108.516 104.176 106.388 104.768 103.956 104.768ZM 136.282 97.472C 136.282 99.52 135.386 101.248 133.594 102.656C 131.802 104.064 129.546 104.768 126.826 104.768C 124.458 104.768 122.378 104.16 120.586 102.944C 118.794 101.696 117.514 100.064 116.746 98.048L 120.682 96.368C 121.258 97.776 122.09 98.88 123.178 99.68C 124.298 100.448 125.514 100.832 126.826 100.832C 128.234 100.832 129.402 100.528 130.33 99.92C 131.29 99.312 131.77 98.592 131.77 97.76C 131.77 96.256 130.618 95.152 128.314 94.448L 124.282 93.44C 119.706 92.288 117.418 90.08 117.418 86.816C 117.418 84.672 118.282 82.96 120.01 81.68C 121.77 80.368 124.01 79.712 126.73 79.712C 128.81 79.712 130.682 80.208 132.346 81.2C 134.042 82.192 135.226 83.52 135.898 85.184L 131.962 86.816C 131.514 85.824 130.778 85.056 129.754 84.512C 128.762 83.936 127.642 83.648 126.394 83.648C 125.242 83.648 124.202 83.936 123.274 84.512C 122.378 85.088 121.93 85.792 121.93 86.624C 121.93 87.968 123.194 88.928 125.722 89.504L 129.274 90.416C 133.946 91.568 136.282 93.92 136.282 97.472ZM 170.832 99.776L 170.832 104L 149.904 104L 149.904 99.584L 158.4 90.992C 161.248 88.08 163.216 85.904 164.304 84.464C 165.392 82.992 165.936 81.456 165.936 79.856C 165.936 78.416 165.376 77.184 164.256 76.16C 163.136 75.136 161.696 74.624 159.936 74.624C 158.432 74.624 157.136 75.072 156.048 75.968C 154.96 76.864 154.256 77.952 153.936 79.232L 149.904 77.6C 150.544 75.584 151.776 73.888 153.6 72.512C 155.424 71.104 157.568 70.4 160.032 70.4C 163.008 70.4 165.488 71.312 167.472 73.136C 169.456 74.96 170.448 77.2 170.448 79.856C 170.448 83.024 168.704 86.448 165.216 90.128L 155.616 99.776L 170.832 99.776ZM 175.034 87.584C 175.034 82.592 176.266 78.48 178.73 75.248C 181.194 72.016 184.362 70.4 188.234 70.4C 192.106 70.4 195.274 72.032 197.738 75.296C 200.202 78.528 201.434 82.624 201.434 87.584C 201.434 92.512 200.202 96.624 197.738 99.92C 195.274 103.152 192.106 104.768 188.234 104.768C 184.362 104.768 181.194 103.152 178.73 99.92C 176.266 96.624 175.034 92.512 175.034 87.584ZM 196.922 87.584C 196.922 83.808 196.122 80.704 194.522 78.272C 192.954 75.84 190.858 74.624 188.234 74.624C 185.61 74.624 183.514 75.84 181.946 78.272C 180.346 80.704 179.546 83.808 179.546 87.584C 179.546 91.36 180.346 94.48 181.946 96.944C 183.514 99.344 185.61 100.544 188.234 100.544C 190.858 100.544 192.954 99.328 194.522 96.896C 196.122 94.432 196.922 91.328 196.922 87.584ZM 217.463 71.168L 217.463 104L 213.047 104L 213.047 76.64L 206.663 79.424L 204.982 75.68L 214.63 71.168L 217.463 71.168ZM 245.676 94.928C 245.676 97.744 244.604 100.08 242.46 101.936C 240.284 103.824 237.644 104.768 234.54 104.768C 231.436 104.768 228.796 103.824 226.62 101.936C 224.476 100.08 223.404 97.744 223.404 94.928C 223.404 93.2 223.868 91.632 224.796 90.224C 225.724 88.784 227.052 87.648 228.78 86.816L 228.78 86.624C 227.5 85.792 226.46 84.768 225.66 83.552C 224.892 82.336 224.508 81.056 224.508 79.712C 224.508 77.056 225.452 74.832 227.34 73.04C 229.196 71.28 231.596 70.4 234.54 70.4C 237.484 70.4 239.884 71.28 241.74 73.04C 243.628 74.832 244.572 77.056 244.572 79.712C 244.572 81.056 244.172 82.336 243.372 83.552C 242.604 84.768 241.58 85.792 240.3 86.624L 240.3 86.816C 242.028 87.648 243.356 88.784 244.284 90.224C 245.212 91.632 245.676 93.2 245.676 94.928ZM 229.02 79.616C 229.02 81.152 229.532 82.4 230.556 83.36C 231.58 84.288 232.908 84.752 234.54 84.752C 236.172 84.752 237.5 84.288 238.524 83.36C 239.548 82.4 240.06 81.152 240.06 79.616C 240.06 78.08 239.548 76.864 238.524 75.968C 237.5 75.072 236.172 74.624 234.54 74.624C 232.908 74.624 231.58 75.072 230.556 75.968C 229.532 76.864 229.02 78.08 229.02 79.616ZM 227.916 94.688C 227.916 95.552 228.076 96.336 228.396 97.04C 228.748 97.744 229.212 98.368 229.788 98.912C 230.396 99.424 231.1 99.824 231.9 100.112C 232.7 100.4 233.58 100.544 234.54 100.544C 235.5 100.544 236.38 100.4 237.18 100.112C 237.98 99.824 238.668 99.424 239.244 98.912C 239.852 98.368 240.316 97.744 240.636 97.04C 240.988 96.336 241.164 95.552 241.164 94.688C 241.164 93.024 240.524 91.648 239.244 90.56C 237.964 89.44 236.396 88.88 234.54 88.88C 232.684 88.88 231.1 89.44 229.788 90.56C 228.54 91.68 227.916 93.056 227.916 94.688Z"/>
</defs>
</svg>
