<svg width="167" height="176" viewBox="0 0 167 176" version="1.1" xmlns="http://www.w3.org/2000/svg" xmlns:xlink="http://www.w3.org/1999/xlink">
<g id="Canvas" transform="translate(-6660 16)">
<g id="phonnie - Copy">
<g id="Layer x0020 1">
<g id="798463248">
<g id="Vector">
<use xlink:href="#path0_stroke" transform="translate(6693.05 -14)" fill="#FF4081"/>
</g>
<g id="Vector">
<use xlink:href="#path1_stroke" transform="translate(6702.35 -2.82331)" fill="#FF4081"/>
</g>
<g id="Vector">
<use xlink:href="#path2_fill" transform="translate(6713.71 75.7569)" fill="#FF4081"/>
</g>
<g id="Vector">
<use xlink:href="#path3_fill" transform="translate(6763.03 75.7569)" fill="#FF4081"/>
</g>
<g id="Vector">
<use xlink:href="#path4_fill" transform="translate(6728.94 90.8603)" fill="#FF4081"/>
</g>
<g id="Vector">
<use xlink:href="#path5_stroke" transform="translate(6728.01 140.144)" fill="#FF4081"/>
</g>
<g id="Vector">
<use xlink:href="#path6_stroke" transform="translate(6754.98 140.144)" fill="#FF4081"/>
</g>
<g id="Vector">
<use xlink:href="#path7_stroke" transform="translate(6661 58.6855)" fill="#FF4081"/>
</g>
<g id="Vector">
<use xlink:href="#path8_stroke" transform="translate(6793.95 58.6855)" fill="#FF4081"/>
</g>
</g>
</g>
</g>
</g>
<defs>
<path id="path0_stroke" d="M -2.31557e-07 5.01154e-08L -2.31557e-07 -2L -2 -2L -2 5.01154e-08L -2.31557e-07 5.01154e-08ZM 100.394 5.01154e-08L 102.394 5.01154e-08L 102.394 -2L 100.394 -2L 100.394 5.01154e-08ZM 100.394 154.144L 100.394 156.144L 102.394 156.144L 102.394 154.144L 100.394 154.144ZM -2.31557e-07 154.144L -2 154.144L -2 156.144L -2.31557e-07 156.144L -2.31557e-07 154.144ZM -2.31557e-07 2L 100.394 2L 100.394 -2L -2.31557e-07 -2L -2.31557e-07 2ZM 98.3939 5.01154e-08L 98.3939 154.144L 102.394 154.144L 102.394 5.01154e-08L 98.3939 5.01154e-08ZM 100.394 152.144L -2.31557e-07 152.144L -2.31557e-07 156.144L 100.394 156.144L 100.394 152.144ZM 2 154.144L 2 5.01154e-08L -2 5.01154e-08L -2 154.144L 2 154.144Z"/>
<path id="path1_stroke" d="M 1.38934e-06 -1.71824e-07L 1.38934e-06 -2L -2 -2L -2 -1.71824e-07L 1.38934e-06 -1.71824e-07ZM 81.8129 -1.71824e-07L 83.8129 -1.71824e-07L 83.8129 -2L 81.8129 -2L 81.8129 -1.71824e-07ZM 81.8129 124.184L 81.8129 126.184L 83.8129 126.184L 83.8129 124.184L 81.8129 124.184ZM 1.38934e-06 124.184L -2 124.184L -2 126.184L 1.38934e-06 126.184L 1.38934e-06 124.184ZM 1.38934e-06 2L 81.8129 2L 81.8129 -2L 1.38934e-06 -2L 1.38934e-06 2ZM 79.8129 -1.71824e-07L 79.8129 124.184L 83.8129 124.184L 83.8129 -1.71824e-07L 79.8129 -1.71824e-07ZM 81.8129 122.184L 1.38934e-06 122.184L 1.38934e-06 126.184L 81.8129 126.184L 81.8129 122.184ZM 2 124.184L 2 -1.71824e-07L -2 -1.71824e-07L -2 124.184L 2 124.184Z"/>
<path id="path2_fill" d="M 5.85531 11.5863C 9.08911 11.5863 11.7106 8.99262 11.7106 5.79315C 11.7106 2.59368 9.08911 0 5.85531 0C 2.62151 0 0 2.59368 0 5.79315C 0 8.99262 2.62151 11.5863 5.85531 11.5863Z"/>
<path id="path3_fill" d="M 5.85531 11.5863C 9.08911 11.5863 11.7106 8.99262 11.7106 5.79315C 11.7106 2.59368 9.08911 0 5.85531 0C 2.62151 0 0 2.59368 0 5.79315C 0 8.99262 2.62151 11.5863 5.85531 11.5863Z"/>
<path id="path4_fill" fill-rule="evenodd" d="M 15.2664 1.37459e-06L 30.5326 1.37459e-06C 30.5326 8.34205 23.6977 15.1043 15.2664 15.1043C 6.83483 15.1043 -2.54713e-06 8.34205 -2.54713e-06 1.37459e-06L 15.2664 1.37459e-06Z"/>
<path id="path5_stroke" d="M 4.63115e-07 17.8557L -2 17.8557L -2 19.8557L 4.63115e-07 19.8557L 4.63115e-07 17.8557ZM -2 2.29099e-06L -2 17.8557L 2 17.8557L 2 2.29099e-06L -2 2.29099e-06ZM 4.63115e-07 19.8557L 17.1481 19.8557L 17.1481 15.8557L 4.63115e-07 15.8557L 4.63115e-07 19.8557Z"/>
<path id="path6_stroke" d="M -4.63115e-07 17.8557L -2 17.8557L -2 19.8557L -4.63115e-07 19.8557L -4.63115e-07 17.8557ZM -2 2.29099e-06L -2 17.8557L 2 17.8557L 2 2.29099e-06L -2 2.29099e-06ZM -4.63115e-07 19.8557L 17.1481 19.8557L 17.1481 15.8557L -4.63115e-07 15.8557L -4.63115e-07 19.8557Z"/>
<path id="path7_stroke" d="M 8.65137 16.1443L 10.649 16.2416L 10.6514 16.1929L 10.6514 16.1443L 8.65137 16.1443ZM 32.4047 39.8251C 20.855 37.7718 15.527 31.7989 12.9934 26.4798C 11.7048 23.7745 11.1165 21.1842 10.8524 19.268C 10.7208 18.3127 10.6708 17.5334 10.6535 17.0027C 10.6448 16.7377 10.6442 16.5355 10.6456 16.4054C 10.6463 16.3403 10.6474 16.2934 10.6482 16.2657C 10.6486 16.2518 10.649 16.2428 10.6491 16.2387C 10.6492 16.2367 10.6493 16.2359 10.6492 16.2364C 10.6492 16.2366 10.6492 16.2371 10.6492 16.238C 10.6491 16.2384 10.6491 16.2393 10.6491 16.2395C 10.6491 16.2405 10.649 16.2416 8.65137 16.1443C 6.65373 16.047 6.65368 16.0482 6.65361 16.0495C 6.65359 16.0501 6.65352 16.0514 6.65347 16.0525C 6.65337 16.0547 6.65326 16.0572 6.65314 16.06C 6.65289 16.0656 6.65259 16.0725 6.65227 16.0808C 6.65162 16.0972 6.65084 16.1188 6.65004 16.1454C 6.64844 16.1986 6.64675 16.2718 6.64579 16.3638C 6.64388 16.5479 6.64492 16.8077 6.6556 17.1337C 6.67695 17.7852 6.73693 18.7043 6.88989 19.8141C 7.19506 22.0284 7.87502 25.0359 9.38213 28.2C 12.44 34.6196 18.8136 41.4716 31.7045 43.7633L 32.4047 39.8251ZM 10.6514 16.1443L 10.6514 1.60369e-06L 6.65137 1.60369e-06L 6.65137 16.1443L 10.6514 16.1443ZM 7.83221 14.6453L 16.4822 19.2578L 18.3642 15.7282L 9.71428 11.1158L 7.83221 14.6453ZM 7.70891 11.1158L -0.941035 15.7282L 0.941035 19.2578L 9.59098 14.6453L 7.70891 11.1158ZM 10.1495 14.3605L 17.883 6.70909L 15.0697 3.86561L 7.33625 11.517L 10.1495 14.3605ZM 10.058 11.517L 2.32452 3.86561L -0.488776 6.70909L 7.24472 14.3605L 10.058 11.517Z"/>
<path id="path8_stroke" d="M 23.4032 16.1443L 21.4032 16.1443L 21.4032 16.1929L 21.4056 16.2416L 23.4032 16.1443ZM 0.350063 43.7633C 13.241 41.4716 19.6146 34.6196 22.6725 28.2C 24.1796 25.0359 24.8595 22.0284 25.1647 19.8141C 25.3177 18.7043 25.3776 17.7852 25.399 17.1337C 25.4097 16.8077 25.4107 16.5479 25.4088 16.3638C 25.4078 16.2718 25.4061 16.1986 25.4045 16.1454C 25.4037 16.1188 25.403 16.0972 25.4023 16.0808C 25.402 16.0725 25.4017 16.0656 25.4014 16.06C 25.4013 16.0572 25.4012 16.0547 25.4011 16.0525C 25.4011 16.0514 25.401 16.0501 25.401 16.0495C 25.4009 16.0482 25.4009 16.047 23.4032 16.1443C 21.4056 16.2416 21.4055 16.2405 21.4055 16.2395C 21.4055 16.2393 21.4054 16.2384 21.4054 16.238C 21.4054 16.2371 21.4054 16.2366 21.4053 16.2364C 21.4053 16.2359 21.4054 16.2367 21.4054 16.2387C 21.4056 16.2428 21.4059 16.2518 21.4064 16.2657C 21.4072 16.2934 21.4083 16.3403 21.409 16.4054C 21.4104 16.5355 21.4098 16.7377 21.4011 17.0027C 21.3837 17.5334 21.3338 18.3127 21.2022 19.268C 20.9381 21.1842 20.3498 23.7745 19.0612 26.4798C 16.5276 31.7989 11.1996 37.7718 -0.350068 39.8251L 0.350063 43.7633ZM 25.4032 16.1443L 25.4032 1.60369e-06L 21.4032 1.60369e-06L 21.4032 16.1443L 25.4032 16.1443ZM 22.3403 11.1158L 13.6904 15.7282L 15.5724 19.2578L 24.2224 14.6453L 22.3403 11.1158ZM 22.4636 14.6453L 31.1135 19.2578L 32.9956 15.7282L 24.3457 11.1158L 22.4636 14.6453ZM 24.7183 11.517L 16.9848 3.86561L 14.1716 6.70909L 21.905 14.3605L 24.7183 11.517ZM 24.8099 14.3605L 32.5434 6.70909L 29.7301 3.86561L 21.9966 11.517L 24.8099 14.3605Z"/>
</defs>
</svg>
