<svg width="166" height="177" viewBox="0 0 166 177" version="1.1" xmlns="http://www.w3.org/2000/svg" xmlns:xlink="http://www.w3.org/1999/xlink">
<title>phonnie - Copy</title>
<desc>Created using Figma</desc>
<g id="Canvas" transform="translate(-7225 3)">
<g id="phonnie - Copy">
<g id="Layer x0020 1">
<g id="798463248">
<g id="Vector">
<use xlink:href="#path0_stroke" transform="translate(7258.6 0)" fill="#FF4081"/>
</g>
<g id="Vector">
<use xlink:href="#path1_stroke" transform="translate(7267.76 11.1315)" fill="#FF4081"/>
</g>
<g id="Vector">
<use xlink:href="#path2_fill" transform="translate(7278.96 89.3931)" fill="#FF4081"/>
</g>
<g id="Vector">
<use xlink:href="#path3_fill" transform="translate(7327.59 89.3931)" fill="#FF4081"/>
</g>
<g id="Vector">
<use xlink:href="#path4_fill" transform="translate(7293.99 104.435)" fill="#FF4081"/>
</g>
<g id="Vector">
<use xlink:href="#path5_stroke" transform="translate(7293.06 153.52)" fill="#FF4081"/>
</g>
<g id="Vector">
<use xlink:href="#path6_stroke" transform="translate(7319.66 153.52)" fill="#FF4081"/>
</g>
<g id="left-hand">
<use xlink:href="#path7_stroke" transform="translate(7227 72.3909)" fill="#FF4081"/>
</g>
<g id="right-hand">
<use xlink:href="#path8_stroke" transform="translate(7358.07 72.3909)" fill="#FF4081"/>
</g>
</g>
</g>
</g>
</g>
<defs>
<path id="path0_stroke" d="M -2.28293e-07 4.99123e-08L -2.28293e-07 -2.5L -2.5 -2.5L -2.5 4.99123e-08L -2.28293e-07 4.99123e-08ZM 98.9787 4.99123e-08L 101.479 4.99123e-08L 101.479 -2.5L 98.9787 -2.5L 98.9787 4.99123e-08ZM 98.9787 153.52L 98.9787 156.02L 101.479 156.02L 101.479 153.52L 98.9787 153.52ZM -2.28293e-07 153.52L -2.5 153.52L -2.5 156.02L -2.28293e-07 156.02L -2.28293e-07 153.52ZM -2.28293e-07 2.5L 98.9787 2.5L 98.9787 -2.5L -2.28293e-07 -2.5L -2.28293e-07 2.5ZM 96.4787 4.99123e-08L 96.4787 153.52L 101.479 153.52L 101.479 4.99123e-08L 96.4787 4.99123e-08ZM 98.9787 151.02L -2.28293e-07 151.02L -2.28293e-07 156.02L 98.9787 156.02L 98.9787 151.02ZM 2.5 153.52L 2.5 4.99123e-08L -2.5 4.99123e-08L -2.5 153.52L 2.5 153.52Z"/>
<path id="path1_stroke" d="M 1.36976e-06 -1.71128e-07L 1.36976e-06 -2.5L -2.5 -2.5L -2.5 -1.71128e-07L 1.36976e-06 -1.71128e-07ZM 80.6596 -1.71128e-07L 83.1596 -1.71128e-07L 83.1596 -2.5L 80.6596 -2.5L 80.6596 -1.71128e-07ZM 80.6596 123.681L 80.6596 126.181L 83.1596 126.181L 83.1596 123.681L 80.6596 123.681ZM 1.36976e-06 123.681L -2.5 123.681L -2.5 126.181L 1.36976e-06 126.181L 1.36976e-06 123.681ZM 1.36976e-06 2.5L 80.6596 2.5L 80.6596 -2.5L 1.36976e-06 -2.5L 1.36976e-06 2.5ZM 78.1596 -1.71128e-07L 78.1596 123.681L 83.1596 123.681L 83.1596 -1.71128e-07L 78.1596 -1.71128e-07ZM 80.6596 121.181L 1.36976e-06 121.181L 1.36976e-06 126.181L 80.6596 126.181L 80.6596 121.181ZM 2.5 123.681L 2.5 -1.71128e-07L -2.5 -1.71128e-07L -2.5 123.681L 2.5 123.681Z"/>
<path id="path2_fill" d="M 5.77277 11.5393C 8.96099 11.5393 11.5455 8.95617 11.5455 5.76967C 11.5455 2.58317 8.96099 0 5.77277 0C 2.58456 0 0 2.58317 0 5.76967C 0 8.95617 2.58456 11.5393 5.77277 11.5393Z"/>
<path id="path3_fill" d="M 5.77277 11.5393C 8.96098 11.5393 11.5455 8.95617 11.5455 5.76967C 11.5455 2.58317 8.96098 0 5.77277 0C 2.58456 0 0 2.58317 0 5.76967C 0 8.95617 2.58456 11.5393 5.77277 11.5393Z"/>
<path id="path4_fill" fill-rule="evenodd" d="M 15.0512 0L 30.1022 0C 30.1022 8.30823 23.3637 15.0431 15.0512 15.0431C 6.73849 15.0431 0 8.30823 0 0L 15.0512 0Z"/>
<path id="path5_stroke" d="M 4.56587e-07 17.7833L -2.5 17.7833L -2.5 20.2833L 4.56587e-07 20.2833L 4.56587e-07 17.7833ZM -2.5 2.2817e-06L -2.5 17.7833L 2.5 17.7833L 2.5 2.2817e-06L -2.5 2.2817e-06ZM 4.56587e-07 20.2833L 16.9064 20.2833L 16.9064 15.2833L 4.56587e-07 15.2833L 4.56587e-07 20.2833Z"/>
<path id="path6_stroke" d="M -4.56587e-07 17.7833L -2.5 17.7833L -2.5 20.2833L -4.56587e-07 20.2833L -4.56587e-07 17.7833ZM -2.5 2.2817e-06L -2.5 17.7833L 2.5 17.7833L 2.5 2.2817e-06L -2.5 2.2817e-06ZM -4.56587e-07 20.2833L 16.9064 20.2833L 16.9064 15.2833L -4.56587e-07 15.2833L -4.56587e-07 20.2833Z"/>
<path id="path7_stroke" d="M 8.52942 16.0788L 11.0265 16.1992L 11.0294 16.1391L 11.0294 16.0788L 8.52942 16.0788ZM 32.0446 39.1642C 20.8441 37.1527 15.7253 31.3249 13.2913 26.1628C 12.0476 23.5252 11.4786 20.9965 11.2232 19.1239C 11.0959 18.1911 11.0479 17.4319 11.0312 16.918C 11.0229 16.6614 11.0224 16.467 11.0237 16.3439C 11.0243 16.2824 11.0254 16.2388 11.0261 16.2143C 11.0265 16.202 11.0268 16.1945 11.0269 16.192C 11.0269 16.1907 11.0269 16.1906 11.0269 16.1918C 11.0268 16.1924 11.0268 16.1934 11.0267 16.1946C 11.0267 16.1952 11.0267 16.1964 11.0266 16.1967C 11.0266 16.1979 11.0265 16.1992 8.52942 16.0788C 6.03231 15.9585 6.03224 15.96 6.03217 15.9615C 6.03214 15.9621 6.03206 15.9638 6.03201 15.965C 6.03189 15.9676 6.03176 15.9704 6.03162 15.9736C 6.03135 15.9799 6.03103 15.9876 6.03068 15.9965C 6.02998 16.0144 6.02916 16.0374 6.02833 16.0654C 6.02666 16.1215 6.02492 16.1975 6.02394 16.2925C 6.02199 16.4824 6.02307 16.7481 6.03385 17.0801C 6.05537 17.7435 6.1157 18.6757 6.26906 19.7998C 6.57482 22.041 7.2562 25.0874 8.76882 28.2953C 11.8474 34.8244 18.2653 41.7696 31.1608 44.0855L 32.0446 39.1642ZM 11.0294 16.0788L 11.0294 1.59719e-06L 6.02942 1.59719e-06L 6.02942 16.0788L 11.0294 16.0788ZM 7.46398 15.0294L 15.992 19.6231L 18.3632 15.2211L 9.83517 10.6274L 7.46398 15.0294ZM 7.34242 10.6274L -1.18559 15.2211L 1.18559 19.6231L 9.71361 15.0294L 7.34242 10.6274ZM 10.3869 14.6545L 18.0114 7.03416L 14.4768 3.49768L 6.85236 11.1181L 10.3869 14.6545ZM 10.2967 11.1181L 2.67222 3.49768L -0.862359 7.03416L 6.76212 14.6545L 10.2967 11.1181Z"/>
<path id="path8_stroke" d="M 23.0747 17.4221L 20.5747 17.4223L 20.5747 17.4864L 20.578 17.5504L 23.0747 17.4221ZM 23.0733 12.8863L 21.3165 14.6649L 23.0837 16.4105L 24.8406 14.6545L 23.0733 12.8863ZM 0.441898 44.0855C 13.2721 41.7813 19.7024 35.2288 22.8092 29.0193C 24.3339 25.9719 25.0224 23.0828 25.3318 20.9549C 25.4869 19.8881 25.5481 19.0028 25.57 18.3712C 25.581 18.055 25.5822 17.8014 25.5802 17.6191C 25.5792 17.5279 25.5774 17.4545 25.5757 17.4C 25.5748 17.3727 25.5739 17.3501 25.5732 17.3324C 25.5728 17.3235 25.5725 17.3158 25.5722 17.3094C 25.572 17.3062 25.5719 17.3033 25.5718 17.3007C 25.5717 17.2994 25.5716 17.2976 25.5716 17.297C 25.5715 17.2953 25.5714 17.2938 23.0747 17.4221C 20.578 17.5504 20.5779 17.549 20.5779 17.5476C 20.5779 17.5473 20.5778 17.546 20.5778 17.5453C 20.5777 17.5439 20.5776 17.5428 20.5776 17.542C 20.5775 17.5404 20.5775 17.5399 20.5775 17.5406C 20.5776 17.542 20.5778 17.548 20.5782 17.5585C 20.5788 17.5794 20.5799 17.6181 20.5805 17.6736C 20.5817 17.7846 20.5812 17.9622 20.5731 18.1979C 20.5567 18.6701 20.5095 19.3715 20.3838 20.2355C 20.1317 21.9695 19.5696 24.3197 18.3376 26.7821C 15.931 31.5921 10.8239 37.141 -0.441903 39.1642L 0.441898 44.0855ZM 25.5747 17.4219L 25.5733 -0.000200011L 20.5733 0.000203205L 20.5747 17.4223L 25.5747 17.4219ZM 21.7676 10.6274L 13.2396 15.2211L 15.6107 19.6231L 24.1388 15.0294L 21.7676 10.6274ZM 21.8891 15.0294L 30.4171 19.6231L 32.7883 15.2211L 24.2603 10.6274L 21.8891 15.0294ZM 24.8302 11.1077L 17.1155 3.48732L 13.6017 7.04453L 21.3165 14.6649L 24.8302 11.1077ZM 24.8406 14.6545L 32.4651 7.03416L 28.9305 3.49768L 21.306 11.1181L 24.8406 14.6545Z"/>
</defs>
</svg>
