<svg width="194" height="177" viewBox="0 0 194 177" version="1.1" xmlns="http://www.w3.org/2000/svg" xmlns:xlink="http://www.w3.org/1999/xlink">
<title>Group 3</title>
<desc>Created using Figma</desc>
<g id="Canvas" transform="translate(-7431 -1)">
<g id="Group 3">
<g id="Group 2">
<g id="phonnie - Copy">
<g id="Layer x0020 1">
<g id="798463248">
<g id="Vector">
<use xlink:href="#path0_stroke" transform="translate(7477.9 3.69701)" fill="#FF4081"/>
</g>
<g id="Vector">
<use xlink:href="#path1_stroke" transform="translate(7487.06 14.8285)" fill="#FF4081"/>
</g>
<g id="Vector">
<use xlink:href="#path2_fill" transform="translate(7498.26 93.0903)" fill="#FF4081"/>
</g>
<g id="Vector">
<use xlink:href="#path3_fill" transform="translate(7546.89 93.0903)" fill="#FF4081"/>
</g>
<g id="Vector">
<use xlink:href="#path4_fill" transform="translate(7513.29 108.132)" fill="#FF4081"/>
</g>
<g id="Vector">
<use xlink:href="#path5_stroke" transform="translate(7512.36 157.217)" fill="#FF4081"/>
</g>
<g id="Vector">
<use xlink:href="#path6_stroke" transform="translate(7538.96 157.217)" fill="#FF4081"/>
</g>
</g>
</g>
</g>
<g id="right-hand">
<use xlink:href="#path7_stroke" transform="matrix(0.781942 0.623351 -0.623827 0.781562 7603.29 84.9323)" fill="#FF4081"/>
</g>
<g id="left-hand">
<use xlink:href="#path8_stroke" transform="matrix(-0.781928 0.623369 0.623845 0.781548 7451.99 84.9323)" fill="#FF4081"/>
</g>
</g>
</g>
</g>
<defs>
<path id="path0_stroke" d="M -2.28293e-07 4.99123e-08L -2.28293e-07 -2.5L -2.5 -2.5L -2.5 4.99123e-08L -2.28293e-07 4.99123e-08ZM 98.9787 4.99123e-08L 101.479 4.99123e-08L 101.479 -2.5L 98.9787 -2.5L 98.9787 4.99123e-08ZM 98.9787 153.52L 98.9787 156.02L 101.479 156.02L 101.479 153.52L 98.9787 153.52ZM -2.28293e-07 153.52L -2.5 153.52L -2.5 156.02L -2.28293e-07 156.02L -2.28293e-07 153.52ZM -2.28293e-07 2.5L 98.9787 2.5L 98.9787 -2.5L -2.28293e-07 -2.5L -2.28293e-07 2.5ZM 96.4787 4.99123e-08L 96.4787 153.52L 101.479 153.52L 101.479 4.99123e-08L 96.4787 4.99123e-08ZM 98.9787 151.02L -2.28293e-07 151.02L -2.28293e-07 156.02L 98.9787 156.02L 98.9787 151.02ZM 2.5 153.52L 2.5 4.99123e-08L -2.5 4.99123e-08L -2.5 153.52L 2.5 153.52Z"/>
<path id="path1_stroke" d="M 1.36976e-06 -1.71128e-07L 1.36976e-06 -2.5L -2.5 -2.5L -2.5 -1.71128e-07L 1.36976e-06 -1.71128e-07ZM 80.6596 -1.71128e-07L 83.1596 -1.71128e-07L 83.1596 -2.5L 80.6596 -2.5L 80.6596 -1.71128e-07ZM 80.6596 123.681L 80.6596 126.181L 83.1596 126.181L 83.1596 123.681L 80.6596 123.681ZM 1.36976e-06 123.681L -2.5 123.681L -2.5 126.181L 1.36976e-06 126.181L 1.36976e-06 123.681ZM 1.36976e-06 2.5L 80.6596 2.5L 80.6596 -2.5L 1.36976e-06 -2.5L 1.36976e-06 2.5ZM 78.1596 -1.71128e-07L 78.1596 123.681L 83.1596 123.681L 83.1596 -1.71128e-07L 78.1596 -1.71128e-07ZM 80.6596 121.181L 1.36976e-06 121.181L 1.36976e-06 126.181L 80.6596 126.181L 80.6596 121.181ZM 2.5 123.681L 2.5 -1.71128e-07L -2.5 -1.71128e-07L -2.5 123.681L 2.5 123.681Z"/>
<path id="path2_fill" d="M 5.77277 11.5393C 8.96099 11.5393 11.5455 8.95617 11.5455 5.76967C 11.5455 2.58317 8.96099 0 5.77277 0C 2.58456 0 0 2.58317 0 5.76967C 0 8.95617 2.58456 11.5393 5.77277 11.5393Z"/>
<path id="path3_fill" d="M 5.77277 11.5393C 8.96098 11.5393 11.5455 8.95617 11.5455 5.76967C 11.5455 2.58317 8.96098 0 5.77277 0C 2.58456 0 0 2.58317 0 5.76967C 0 8.95617 2.58456 11.5393 5.77277 11.5393Z"/>
<path id="path4_fill" fill-rule="evenodd" d="M 15.0512 0L 30.1022 0C 30.1022 8.30823 23.3637 15.0431 15.0512 15.0431C 6.73849 15.0431 0 8.30823 0 0L 15.0512 0Z"/>
<path id="path5_stroke" d="M 4.56587e-07 17.7833L -2.5 17.7833L -2.5 20.2833L 4.56587e-07 20.2833L 4.56587e-07 17.7833ZM -2.5 2.2817e-06L -2.5 17.7833L 2.5 17.7833L 2.5 2.2817e-06L -2.5 2.2817e-06ZM 4.56587e-07 20.2833L 16.9064 20.2833L 16.9064 15.2833L 4.56587e-07 15.2833L 4.56587e-07 20.2833Z"/>
<path id="path6_stroke" d="M -4.56587e-07 17.7833L -2.5 17.7833L -2.5 20.2833L -4.56587e-07 20.2833L -4.56587e-07 17.7833ZM -2.5 2.2817e-06L -2.5 17.7833L 2.5 17.7833L 2.5 2.2817e-06L -2.5 2.2817e-06ZM -4.56587e-07 20.2833L 16.9064 20.2833L 16.9064 15.2833L -4.56587e-07 15.2833L -4.56587e-07 20.2833Z"/>
<path id="path7_stroke" d="M 23.0691 17.4263L 25.5233 17.903L 25.5691 17.6668L 25.5691 17.4261L 23.0691 17.4263ZM 23.0677 12.8894L 21.3104 14.6676L 23.0781 16.4145L 24.8354 14.6572L 23.0677 12.8894ZM 0.929924 43.9555C 11.4253 39.7498 17.5785 33.3299 21.101 27.8979C 22.8555 25.1922 23.9505 22.7434 24.6111 20.9512C 24.9416 20.0545 25.1643 19.3197 25.3069 18.7961C 25.3782 18.5342 25.4296 18.3248 25.4645 18.174C 25.482 18.0986 25.4953 18.0378 25.5049 17.9924C 25.5098 17.9697 25.5137 17.9509 25.5167 17.9359C 25.5182 17.9285 25.5195 17.922 25.5206 17.9165C 25.5211 17.9138 25.5216 17.9113 25.5221 17.909C 25.5223 17.9079 25.5226 17.9064 25.5227 17.9058C 25.523 17.9044 25.5233 17.903 23.0691 17.4263C 20.615 16.9496 20.6152 16.9483 20.6155 16.9472C 20.6155 16.9468 20.6158 16.9457 20.6159 16.9451C 20.6161 16.9438 20.6163 16.9428 20.6165 16.942C 20.6168 16.9405 20.6169 16.9399 20.6168 16.9403C 20.6167 16.941 20.6158 16.9455 20.614 16.9538C 20.6105 16.9703 20.6037 17.0016 20.5932 17.047C 20.5722 17.1378 20.5364 17.2848 20.4826 17.4822C 20.3751 17.8772 20.1959 18.4726 19.9197 19.2219C 19.3668 20.7218 18.4289 22.8287 16.9058 25.1775C 13.8729 29.8545 8.49156 35.5389 -0.929928 39.3143L 0.929924 43.9555ZM 25.5691 17.4261L 25.5677 -0.000199913L 20.5677 0.000203108L 20.5691 17.4265L 25.5691 17.4261ZM 21.7615 10.6307L 13.2356 15.2256L 15.6077 19.6271L 24.1336 15.0322L 21.7615 10.6307ZM 21.8831 15.0322L 30.409 19.6271L 32.7811 15.2256L 24.2552 10.6307L 21.8831 15.0322ZM 24.825 11.1113L 17.1122 3.48902L 13.5976 7.04538L 21.3104 14.6676L 24.825 11.1113ZM 24.8354 14.6572L 32.4581 7.03502L 28.9226 3.49939L 21.3 11.1216L 24.8354 14.6572Z"/>
<path id="path8_stroke" d="M 23.0691 17.4263L 25.5233 17.903L 25.5691 17.6668L 25.5691 17.4261L 23.0691 17.4263ZM 23.0677 12.8894L 21.3104 14.6676L 23.0781 16.4145L 24.8354 14.6572L 23.0677 12.8894ZM 0.929926 43.9556C 11.4253 39.7498 17.5785 33.3299 21.101 27.8979C 22.8555 25.1922 23.9505 22.7434 24.6111 20.9512C 24.9416 20.0545 25.1643 19.3197 25.3069 18.7961C 25.3782 18.5342 25.4296 18.3248 25.4645 18.174C 25.482 18.0986 25.4953 18.0379 25.5049 17.9924C 25.5098 17.9697 25.5137 17.9509 25.5167 17.9359C 25.5182 17.9285 25.5195 17.922 25.5206 17.9165C 25.5212 17.9138 25.5216 17.9113 25.5221 17.909C 25.5223 17.9079 25.5226 17.9064 25.5227 17.9058C 25.523 17.9044 25.5233 17.903 23.0691 17.4263C 20.615 16.9496 20.6152 16.9483 20.6155 16.9472C 20.6155 16.9468 20.6158 16.9457 20.6159 16.9451C 20.6161 16.9438 20.6163 16.9428 20.6165 16.942C 20.6168 16.9405 20.6169 16.9399 20.6168 16.9403C 20.6167 16.941 20.6158 16.9455 20.614 16.9538C 20.6105 16.9703 20.6037 17.0016 20.5932 17.047C 20.5722 17.1378 20.5364 17.2848 20.4826 17.4822C 20.3751 17.8772 20.1959 18.4726 19.9197 19.2219C 19.3668 20.7218 18.4289 22.8287 16.9058 25.1775C 13.8729 29.8545 8.49157 35.5389 -0.929926 39.3143L 0.929926 43.9556ZM 25.5691 17.4261L 25.5677 -0.000201666L 20.5677 0.000201666L 20.5691 17.4265L 25.5691 17.4261ZM 21.7616 10.6307L 13.2356 15.2256L 15.6077 19.6271L 24.1336 15.0322L 21.7616 10.6307ZM 21.8831 15.0322L 30.409 19.6271L 32.7811 15.2256L 24.2552 10.6307L 21.8831 15.0322ZM 24.825 11.1113L 17.1122 3.48902L 13.5976 7.04538L 21.3104 14.6676L 24.825 11.1113ZM 24.8354 14.6572L 32.4581 7.03501L 28.9226 3.49939L 21.3 11.1216L 24.8354 14.6572Z"/>
</defs>
</svg>
