<?xml version="1.0" encoding="UTF-8" standalone="no"?>
<svg width="137px" height="45px" viewBox="0 0 137 45" version="1.1" xmlns="http://www.w3.org/2000/svg" xmlns:xlink="http://www.w3.org/1999/xlink" xmlns:sketch="http://www.bohemiancoding.com/sketch/ns">
    <!-- Generator: Sketch 3.2 (9961) - http://www.bohemiancoding.com/sketch -->
    <title>ctco-logo</title>
    <desc>Created with Sketch.</desc>
    <defs></defs>
    <g id="Main" stroke="none" stroke-width="1" fill="none" fill-rule="evenodd" sketch:type="MSPage">
        <g id="1920" sketch:type="MSArtboardGroup" transform="translate(-59.000000, -18.000000)">
            <g id="Header" sketch:type="MSLayerGroup">
                <g id="ctco-logo" transform="translate(59.000000, 18.000000)" sketch:type="MSShapeGroup">
                    <path d="M59.4866139,17.8988571 C59.4866139,18.3878571 59.0855854,18.7847143 58.5909114,18.7847143 L44.3758608,18.7847143 C43.8807532,18.7847143 43.4801582,18.3878571 43.4801582,17.8988571 L43.4801582,14.0005714 C43.4801582,13.5111429 43.8811867,13.1147143 44.3758608,13.1147143 L58.5909114,13.1147143 C59.086019,13.1147143 59.4866139,13.5115714 59.4866139,14.0005714 L59.4866139,17.8988571 L59.4866139,17.8988571 Z" id="Shape" fill="#00457E"></path>
                    <path d="M24.3135981,13.1147143 L3.70073418,13.1147143 C3.20519304,13.1147143 2.80416456,13.5115714 2.80416456,14.0005714 L2.80416456,17.8988571 C2.80416456,18.3878571 3.20562658,18.7847143 3.70073418,18.7847143 L24.3135981,18.7847143 C24.8082722,18.7847143 25.2093006,18.3878571 25.2093006,17.8988571 L25.2093006,14.0005714 C25.2093006,13.5111429 24.8082722,13.1147143 24.3135981,13.1147143 L24.3135981,13.1147143 Z" id="Shape" fill="#00457E"></path>
                    <path d="M24.3135981,26.049 L3.70073418,26.049 C3.20519304,26.049 2.80416456,26.4458571 2.80416456,26.9348571 L2.80416456,30.8331429 C2.80416456,31.3225714 3.20562658,31.719 3.70073418,31.719 L24.3135981,31.719 C24.8082722,31.719 25.2093006,31.3221429 25.2093006,30.8331429 L25.2093006,26.9348571 C25.2093006,26.4458571 24.8082722,26.049 24.3135981,26.049 L24.3135981,26.049 Z" id="Shape" fill="#00457E"></path>
                    <path d="M38.5503259,18.1277143 C38.5503259,18.6171429 38.1488639,19.0135714 37.6537563,19.0135714 L31.2091203,19.0135714 C30.7144462,19.0135714 30.3134177,18.6171429 30.3134177,18.1277143 L30.3134177,13.7734286 C30.3134177,13.284 30.7148797,12.8875714 31.2091203,12.8875714 L37.6537563,12.8875714 C38.1492975,12.8875714 38.5503259,13.284 38.5503259,13.7734286 L38.5503259,18.1277143 L38.5503259,18.1277143 Z" id="Shape" fill="#ABCEE3"></path>
                    <path d="M38.5503259,30.9908571 C38.5503259,31.4798571 38.1488639,31.8762857 37.6537563,31.8762857 L31.2091203,31.8762857 C30.7144462,31.8762857 30.3134177,31.4794286 30.3134177,30.9908571 L30.3134177,26.6365714 C30.3134177,26.1475714 30.7148797,25.7511429 31.2091203,25.7511429 L37.6537563,25.7511429 C38.1492975,25.7511429 38.5503259,26.148 38.5503259,26.6365714 L38.5503259,30.9908571 L38.5503259,30.9908571 Z" id="Shape" fill="#00457E"></path>
                    <path d="M38.5230127,43.881 C38.5230127,44.3704286 38.1215506,44.7668571 37.6268766,44.7668571 L31.181807,44.7668571 C30.6871329,44.7668571 30.2861044,44.37 30.2861044,43.881 L30.2861044,39.5271429 C30.2861044,39.0377143 30.6875665,38.6412857 31.181807,38.6412857 L37.6268766,38.6412857 C38.1219842,38.6412857 38.5230127,39.0381429 38.5230127,39.5271429 L38.5230127,43.881 L38.5230127,43.881 Z" id="Shape" fill="#59B4DF"></path>
                    <path d="M75.6539146,5.316 C75.6539146,5.80542857 75.2524525,6.20185714 74.758212,6.20185714 L68.3127089,6.20185714 C67.8171677,6.20185714 67.4161392,5.80542857 67.4161392,5.316 L67.4161392,0.962142857 C67.4161392,0.472714286 67.8176013,0.0762857143 68.3127089,0.0762857143 L74.758212,0.0762857143 C75.2528861,0.0762857143 75.6539146,0.472714286 75.6539146,0.962142857 L75.6539146,5.316 L75.6539146,5.316 Z" id="Shape" fill="#ABCEE3"></path>
                    <path d="M75.6539146,18.1795714 C75.6539146,18.6685714 75.2524525,19.0654286 74.758212,19.0654286 L68.3127089,19.0654286 C67.8171677,19.0654286 67.4161392,18.6685714 67.4161392,18.1795714 L67.4161392,13.8252857 C67.4161392,13.3362857 67.8176013,12.9398571 68.3127089,12.9398571 L74.758212,12.9398571 C75.2528861,12.9398571 75.6539146,13.3362857 75.6539146,13.8252857 L75.6539146,18.1795714 L75.6539146,18.1795714 Z" id="Shape" fill="#59B4DF"></path>
                    <path d="M75.6266013,31.0697143 C75.6266013,31.5587143 75.2251392,31.9551429 74.7300316,31.9551429 L68.2853956,31.9551429 C67.7898544,31.9551429 67.3888259,31.5582857 67.3888259,31.0697143 L67.3888259,26.7154286 C67.3888259,26.226 67.790288,25.8295714 68.2853956,25.8295714 L74.7300316,25.8295714 C75.2255728,25.8295714 75.6266013,26.2264286 75.6266013,26.7154286 L75.6266013,31.0697143 L75.6266013,31.0697143 Z" id="Shape" fill="#00457E"></path>
                    <path d="M62.7637753,30.8104286 C62.7637753,31.2998571 62.3623133,31.6962857 61.8680728,31.6962857 L49.4452943,31.6962857 C48.9506203,31.6962857 48.5495918,31.2994286 48.5495918,30.8104286 L48.5495918,26.9121429 C48.5495918,26.4227143 48.9510538,26.0262857 49.4452943,26.0262857 L61.8680728,26.0262857 C62.3627468,26.0262857 62.7637753,26.4231429 62.7637753,26.9121429 L62.7637753,30.8104286 L62.7637753,30.8104286 Z" id="Shape" fill="#00457E"></path>
                    <path d="M7.2835443,26.052 C6.78843671,26.052 6.38740823,25.6452857 6.38740823,25.1434286 L6.38740823,19.6894286 C6.38740823,19.1871429 6.78887025,18.7804286 7.2835443,18.7804286 L8.1818481,18.7804286 L8.1818481,15.7748571 C8.1818481,14.307 6.97789557,13.1168571 5.49300633,13.1168571 L2.9836519,13.1168571 C1.49832911,13.1168571 0.295243671,14.3065714 0.295243671,15.7748571 L0.295243671,29.0262857 C0.295243671,30.4941429 1.49832911,31.6842857 2.9836519,31.6842857 L5.49300633,31.6842857 C6.97789557,31.6842857 8.1818481,30.4941429 8.1818481,29.0262857 L8.1818481,26.0524286 L7.2835443,26.0524286 L7.2835443,26.052 Z" id="Shape" fill="#00457E"></path>
                    <path d="M106.048405,17.8988571 C106.048405,18.3878571 105.646943,18.7847143 105.151835,18.7847143 L84.5389715,18.7847143 C84.0442975,18.7847143 83.643269,18.3878571 83.643269,17.8988571 L83.643269,14.0005714 C83.643269,13.5111429 84.044731,13.1147143 84.5389715,13.1147143 L105.151835,13.1147143 C105.647377,13.1147143 106.048405,13.5115714 106.048405,14.0005714 L106.048405,17.8988571 L106.048405,17.8988571 Z" id="Shape" fill="#00457E"></path>
                    <path d="M132.928152,17.8988571 C132.928152,18.3878571 132.608196,18.7847143 132.213671,18.7847143 L115.784509,18.7847143 C115.390851,18.7847143 115.070896,18.3878571 115.070896,17.8988571 L115.070896,14.0005714 C115.070896,13.5111429 115.390851,13.1147143 115.784509,13.1147143 L132.213671,13.1147143 C132.608196,13.1147143 132.928152,13.5115714 132.928152,14.0005714 L132.928152,17.8988571 L132.928152,17.8988571 Z" id="Shape" fill="#00457E"></path>
                    <path d="M132.928152,30.8022857 C132.928152,31.2891429 132.609063,31.6842857 132.214538,31.6842857 L115.79925,31.6842857 C115.404725,31.6842857 115.085636,31.2891429 115.085636,30.8022857 L115.085636,26.9224286 C115.085636,26.4355714 115.404725,26.0404286 115.79925,26.0404286 L132.214538,26.0404286 C132.609063,26.0404286 132.928152,26.4355714 132.928152,26.9224286 L132.928152,30.8022857 L132.928152,30.8022857 Z" id="Shape" fill="#00457E"></path>
                    <path d="M106.048405,30.8331429 C106.048405,31.3225714 105.646943,31.719 105.151835,31.719 L84.5389715,31.719 C84.0442975,31.719 83.643269,31.3221429 83.643269,30.8331429 L83.643269,26.9348571 C83.643269,26.4454286 84.044731,26.049 84.5389715,26.049 L105.151835,26.049 C105.647377,26.049 106.048405,26.4458571 106.048405,26.9348571 L106.048405,30.8331429 L106.048405,30.8331429 Z" id="Shape" fill="#00457E"></path>
                    <path d="M88.1226487,26.052 C87.6279747,26.052 87.2269462,25.6452857 87.2269462,25.1434286 L87.2269462,19.6894286 C87.2269462,19.1871429 87.6284082,18.7804286 88.1226487,18.7804286 L89.0200854,18.7804286 L89.0200854,15.7748571 C89.0200854,14.307 87.817,13.1168571 86.3316772,13.1168571 L83.8227563,13.1168571 C82.3374335,13.1168571 81.1343481,14.3065714 81.1343481,15.7748571 L81.1343481,29.0262857 C81.1343481,30.4941429 82.3374335,31.6842857 83.8227563,31.6842857 L86.3316772,31.6842857 C87.817,31.6842857 89.0200854,30.4941429 89.0200854,29.0262857 L89.0200854,26.0524286 L88.1226487,26.0524286 L88.1226487,26.052 Z" id="Shape" fill="#00457E"></path>
                    <path d="M118.886519,26.052 C118.391845,26.052 117.990816,25.6452857 117.990816,25.1434286 L117.990816,19.6894286 C117.990816,19.1871429 118.392278,18.7804286 118.886519,18.7804286 L119.784823,18.7804286 L119.784823,15.7748571 C119.784823,14.307 118.581737,13.1168571 117.096415,13.1168571 L114.587494,13.1168571 C113.102171,13.1168571 111.899085,14.3065714 111.899085,15.7748571 L111.899085,29.0262857 C111.899085,30.4941429 113.102171,31.6842857 114.587494,31.6842857 L117.096415,31.6842857 C118.581737,31.6842857 119.784823,30.4941429 119.784823,29.0262857 L119.784823,26.0524286 L118.886519,26.0524286 L118.886519,26.052 Z" id="Shape" fill="#00457E"></path>
                    <path d="M134.047563,13.1168571 L131.538642,13.1168571 C130.05332,13.1168571 128.850234,14.3065714 128.850234,15.7748571 L128.850234,18.7487143 L129.748538,18.7487143 C130.243212,18.7487143 130.644241,19.1558571 130.644241,19.6577143 L130.644241,25.1117143 C130.644241,25.6135714 130.242778,26.0202857 129.748538,26.0202857 L128.850234,26.0202857 L128.850234,29.0262857 C128.850234,30.4941429 130.05332,31.6842857 131.538642,31.6842857 L134.047563,31.6842857 C135.532886,31.6842857 136.736839,30.4941429 136.736839,29.0262857 L136.736839,15.7748571 C136.737272,14.3065714 135.532886,13.1168571 134.047563,13.1168571 L134.047563,13.1168571 Z" id="Shape" fill="#00457E"></path>
                    <path d="M52.6192722,29.028 C52.6192722,30.4958571 51.4157532,31.6855714 49.9308639,31.6855714 L48.8968608,31.6855714 C47.4124051,31.6855714 46.2084525,30.4958571 46.2084525,29.028 L46.2084525,9.38442857 C46.2084525,7.917 47.4124051,6.72685714 48.8968608,6.72685714 L49.9308639,6.72685714 C51.4157532,6.72685714 52.6192722,7.917 52.6192722,9.38442857 L52.6192722,29.028 L52.6192722,29.028 Z" id="Shape" fill="#00457E"></path>
                </g>
            </g>
        </g>
    </g>
</svg>
